<?xml version="1.0" encoding="utf-8"?>
<svg viewBox="0 0 500 500" width="500" height="500" xmlns="http://www.w3.org/2000/svg" xmlns:bx="https://boxy-svg.com">
  <path d="M 85.918 -75.811 Q 105 -86.828 124.082 -75.811 L 297.945 24.569 Q 317.027 35.586 317.027 57.621 L 317.027 258.379 Q 317.027 280.414 297.945 291.431 L 124.082 391.811 Q 105 402.828 85.918 391.811 L -87.945 291.431 Q -107.027 280.414 -107.027 258.379 L -107.027 57.621 Q -107.027 35.586 -87.945 24.569 Z" transform="matrix(0.4999679923057556, 0.8660439848899841, -0.8660439848899841, 0.4999679923057556, 332.2756042480469, 79.69239807128906)" bx:shape="n-gon 105 158 244.828 244.828 6 0.09 1@db8e5bb5"/>
  <ellipse transform="matrix(-0.7071070075035095, 0.7071070075035095, -0.7071070075035095, -0.7071070075035095, 502.41253662109375, 217.14813232421878)" cx="204.167" cy="156.667" rx="175.176" ry="175.176" style="fill: rgb(255, 255, 255);"/>
  <ellipse transform="matrix(-0.7071070075035095, 0.7071070075035095, -0.7071070075035095, -0.7071070075035095, 647.0232543945312, 250.93606567382815)" cx="282.375" cy="283.343" rx="88.212" ry="88.212"/>
  <rect x="229.167" y="304.621" width="37.5" height="146.591" transform="matrix(1, 0, 0, 1, 7.105427357601002e-15, 0)"/>
  <rect x="229.167" y="112.954" width="37.5" height="146.591" transform="matrix(0.4999990165233612, 0.8660250306129456, -0.8660260438919067, 0.5, 385.2571716308594, -121.57653045654297)" bx:origin="-0.23 0.812"/>
  <rect x="229.167" y="112.954" width="37.5" height="146.591" transform="matrix(0.5000020265579224, -0.8660240173339844, 0.8660250306129456, 0.5, -149.05453491210938, 300.4120788574219)" bx:origin="-0.23 0.812"/>
</svg>