<?xml version="1.0" encoding="utf-8"?>
<svg viewBox="0 0 500 500" width="500" height="500" xmlns="http://www.w3.org/2000/svg">
  <path d="M 198.992 119.437 C 233.225 60.143 267.459 60.143 301.692 119.437 L 432.402 345.833 C 466.635 405.127 449.519 434.774 381.052 434.774 L 119.632 434.774 C 51.165 434.774 34.049 405.127 68.282 345.833 Z M 261.361 314.401 C 262.814 312.768 263.541 310.808 263.541 308.521 L 268.701 182.731 C 268.788 180.438 268.148 178.478 266.781 176.851 C 265.414 175.224 263.631 174.411 261.431 174.411 L 238.971 174.411 C 236.944 174.411 235.204 175.224 233.751 176.851 C 232.298 178.478 231.571 180.438 231.571 182.731 L 238.311 308.521 C 238.311 310.808 239.014 312.768 240.421 314.401 C 241.828 316.028 243.544 316.841 245.571 316.841 L 256.141 316.841 C 258.168 316.841 259.908 316.028 261.361 314.401 Z M 234.871 380.921 C 239.278 385.501 244.608 387.791 250.861 387.791 C 257.028 387.791 262.311 385.501 266.711 380.921 C 271.118 376.341 273.321 370.881 273.321 364.541 C 273.321 358.288 271.118 352.871 266.711 348.291 C 262.398 343.798 257.114 341.551 250.861 341.551 C 244.521 341.551 239.191 343.798 234.871 348.291 C 230.378 352.871 228.131 358.288 228.131 364.541 C 228.131 370.881 230.378 376.341 234.871 380.921 Z" style="fill: rgb(251, 126, 115);" transform="matrix(1, 0, 0, 1, 0, 0)"/>
  <g fill="#75d6ff" transform="matrix(1.4464269876480103, -1.7861878871917725, 1.7861878871917725, 1.4464269876480103, 289.6857604980469, 117.47977447509766)">
    <path d="M 22.821 -4.036 C 28.521 8.864 35.221 18.164 42.621 22.464 C 48.921 26.064 57.021 23.964 60.621 17.764 C 64.221 11.464 62.021 3.464 55.721 -0.136 C 48.221 -4.436 36.621 -5.536 22.821 -4.036" transform="matrix(0.978148, -0.207912, 0.207912, 0.978148, -1.101934, 9.067813)"/>
    <path d="M 14.171 19.098 C 7.671 27.898 3.971 35.998 3.971 42.698 C 3.971 48.398 8.571 52.998 14.171 52.998 C 19.771 52.998 24.371 48.398 24.371 42.698 C 24.371 35.998 20.471 27.798 14.171 19.098" transform="matrix(0.992546, 0.121869, -0.121869, 0.992546, 4.498757, -1.458309)"/>
    <path d="M 36.391 27.928 C 35.191 38.828 36.091 47.728 39.391 53.528 C 42.191 58.428 48.491 60.128 53.391 57.328 C 58.291 54.528 59.891 48.228 57.091 43.328 C 53.691 37.528 46.191 32.328 36.391 27.928" transform="matrix(0.978148, -0.207911, 0.207911, 0.978148, -7.972177, 10.754318)"/>
  </g>
  <g fill="#75d6ff" transform="matrix(-1.0075500011444092, 2.0657830238342285, -2.0657830238342285, -1.0075500011444092, 208.35308837890625, 60.10479736328125)">
    <path d="M 30.757 16.556 C 35.331 26.908 40.707 34.37 46.645 37.821 C 51.701 40.709 58.2 39.024 61.089 34.049 C 63.978 28.994 62.212 22.575 57.157 19.686 C 51.139 16.235 41.831 15.353 30.757 16.556" transform="matrix(1, 0, 0, 1, -0.000006, 0.00001)"/>
    <path d="M 12.573 16.029 C 6.073 24.829 2.373 32.929 2.373 39.629 C 2.373 45.329 6.973 49.929 12.573 49.929 C 18.173 49.929 22.773 45.329 22.773 39.629 C 22.773 32.929 18.873 24.729 12.573 16.029" transform="matrix(1, 0, 0, 1, -0.000012, 0.000005)"/>
  </g>
</svg>